<?xml version="1.0" standalone="no"?><!DOCTYPE svg PUBLIC "-//W3C//DTD SVG 1.1//EN" "http://www.w3.org/Graphics/SVG/1.1/DTD/svg11.dtd"><svg t="1683156049917" class="icon" viewBox="0 0 1024 1024" version="1.1" xmlns="http://www.w3.org/2000/svg" p-id="3608" xmlns:xlink="http://www.w3.org/1999/xlink" width="200" height="200"><path d="M931.368594 482.442455h-26.374376v-262.138837a9.14811 9.14811 0 0 0-0.588475-3.156365 9.576092 9.576092 0 0 0-2.246905-10.004074L697.690546 2.781882a9.62959 9.62959 0 0 0-16.370303 6.847708V213.990887a9.576092 9.576092 0 0 0 9.576092 9.576092h194.945698v258.875476H138.211371V20.810614h499.989708a9.62959 9.62959 0 0 0 0-19.205682H128.581781a9.415599 9.415599 0 0 0-6.740713 2.835379 9.415599 9.415599 0 0 0-2.835379 6.740713v471.261431H92.68481A27.979309 27.979309 0 0 0 64.705501 510.421764v327.459555a27.979309 27.979309 0 0 0 27.979309 27.979308h26.320879v52.160279A106.032485 106.032485 0 0 0 225.198667 1023.999893h670.219458a9.576092 9.576092 0 0 0 9.576093-9.576092v-148.563174H931.368594a27.979309 27.979309 0 0 0 27.925811-27.979308V510.421764a27.979309 27.979309 0 0 0-27.925811-27.979309z m-230.842669-278.188153V32.740606L872.5211 204.52179z m80.246583 354.636398a87.36178 87.36178 0 0 1 62.69933 27.444331l-22.576039 27.176843a54.94216 54.94216 0 0 0-39.267328-17.921737c-32.098633 0-56.60059 27.765318-56.60059 73.666363s21.934066 74.522326 55.744627 74.522326a59.489467 59.489467 0 0 0 44.189118-21.078102l22.522541 26.748861a86.559314 86.559314 0 0 1-68.156098 31.617153c-54.032699 0-97.954329-38.732351-97.954329-110.098311 0-70.509997 45.366068-111.810239 99.398768-111.810239z m-229.237738 4.333315h50.287858l68.744573 213.990887h-44.777593L610.382264 722.219244H540.835225l-15.03286 54.888663h-43.333154z m-206.233718 0h42.798178v177.933423h86.666309v35.843473H345.140559z m-168.999303 0h131.550898v35.522487H218.885936v55.744627H294.745705V690.120611H218.885936v86.66631h-42.798178z m709.700777 441.623694H225.198667a86.8803 86.8803 0 0 1-86.987296-86.826803v-52.160279h747.630662z" fill="#FF0D66" p-id="3609"></path><path d="M595.028417 665.511659c-6.687215-22.255052-12.464969-46.810507-18.7777-69.921522h-1.17695c-5.349772 23.378504-11.822997 47.66647-18.189225 69.921522l-6.366229 23.378505h50.822836z" fill="#FF0D66" p-id="3610"></path></svg>